<svg xmlns="http://www.w3.org/2000/svg" xmlns:xlink="http://www.w3.org/1999/xlink" width="347.847" height="274" viewBox="0 0 347.847 274">
  <defs>
    <linearGradient id="linear-gradient" x1="0.386" y1="1.428" x2="0.521" y2="-0.135" gradientUnits="objectBoundingBox">
      <stop offset="0.01"/>
      <stop offset="0.08" stop-opacity="0.69"/>
      <stop offset="0.21" stop-opacity="0.322"/>
      <stop offset="1" stop-opacity="0"/>
    </linearGradient>
    <linearGradient id="linear-gradient-2" x1="-0.37" y1="1.814" x2="1.827" y2="-1.489" xlink:href="#linear-gradient"/>
    <linearGradient id="linear-gradient-3" x1="-11.276" y1="14.024" x2="-13.08" y2="12.888" xlink:href="#linear-gradient"/>
    <linearGradient id="linear-gradient-4" x1="-0.488" y1="0.313" x2="1.641" y2="0.696" gradientUnits="objectBoundingBox">
      <stop offset="0.01"/>
      <stop offset="0.13" stop-opacity="0.69"/>
      <stop offset="0.25" stop-opacity="0.322"/>
      <stop offset="1" stop-opacity="0"/>
    </linearGradient>
    <linearGradient id="linear-gradient-5" x1="0.634" y1="-0.911" x2="0.326" y2="2.874" xlink:href="#linear-gradient-4"/>
    <linearGradient id="linear-gradient-6" x1="-0.149" y1="-0.353" x2="1.528" y2="2.655" xlink:href="#linear-gradient"/>
    <linearGradient id="linear-gradient-7" x1="-2.096" y1="0.698" x2="3" y2="0.309" xlink:href="#linear-gradient-4"/>
    <linearGradient id="linear-gradient-8" x1="3.149" y1="0.647" x2="-3.624" y2="0.284" xlink:href="#linear-gradient-4"/>
    <linearGradient id="linear-gradient-9" x1="128.2" y1="-30.563" x2="131.248" y2="-30.936" xlink:href="#linear-gradient-4"/>
    <linearGradient id="linear-gradient-10" x1="68.938" y1="-41.403" x2="72.087" y2="-41.85" xlink:href="#linear-gradient-4"/>
    <linearGradient id="linear-gradient-11" x1="110.038" y1="-23.14" x2="116.967" y2="-22.647" xlink:href="#linear-gradient-4"/>
    <linearGradient id="linear-gradient-12" x1="162.966" y1="-27.848" x2="169.199" y2="-27.335" xlink:href="#linear-gradient-4"/>
  </defs>
  <g id="Achievement__Monochromatic" data-name="Achievement _Monochromatic" transform="translate(0 0.002)">
    <path id="Path_11241" data-name="Path 11241" d="M60.091,33.659C43.53,43.02,28.859,56.475,20.484,73.539S10.681,109.579,9.8,128.3c-.882,20.99-.777,41.98,4.366,62.34,4.765,18.744,13.727,36.166,23.782,52.685,7.388,12.132,15.721,24.222,27.644,31.968a80.6,80.6,0,0,0,28.483,10.495,157.424,157.424,0,0,0,100.269-13.727c23.089-11.586,43.155-28.861,67.524-37.068,21.389-7.2,45.4-7.221,64.67-18.891,24.012-14.693,35.011-46.052,29.134-73.57s-26.552-50.376-51.614-63.222c-14.21-7.262-29.575-11.46-43.89-18.24s-27.392-16.057-41.35-23.593C168.945,10.507,110.341,5.238,60.091,33.659Z" transform="translate(-9.38 -14.66)" fill="#2f1073" opacity="0.18" style="isolation: isolate"/>
    <path id="Path_11242" data-name="Path 11242" d="M121.679,60.326l2.792,1.175a4.2,4.2,0,0,1,2.456,1.826,4.2,4.2,0,0,1-.147,2.876c-.378,1.238-.819,2.477-1.3,3.694-.63,1.616-1.364,3.211-1.847,4.87a35.284,35.284,0,0,0-.5,12.783c0,1.385-1.763,2.1-3.128,2.288a15.155,15.155,0,0,1-7.745-.4,1.658,1.658,0,0,1-.63-.336,1.427,1.427,0,0,1-.294-1.029c-.147-2.288-.147-4.66-.462-6.759a18.576,18.576,0,0,0-.693-3.379,32.284,32.284,0,0,1-.546-3.274c-.189-.882-.462-1.742-.609-2.624a4.975,4.975,0,0,1,.189-2.666c.378-.924.9-1.784,1.364-2.666a26.387,26.387,0,0,0,1.3-2.96,8.165,8.165,0,0,1,.9-2.1,5.31,5.31,0,0,1,4.093-1.889A11.271,11.271,0,0,1,121.679,60.326Z" transform="translate(100.016 34.845)" fill="#ffbbab"/>
    <path id="Path_11243" data-name="Path 11243" d="M110.8,62.853a12.972,12.972,0,0,1-1.91-3.3,18.2,18.2,0,0,1-.966-4.7,3.946,3.946,0,0,1,.126-1.721c.273-.756.945-1.322,1.154-2.1a.357.357,0,0,0,0-.252.366.366,0,0,0-.273-.168l-.882-.231a3,3,0,0,0-.336-2.1,1.3,1.3,0,0,0-1.217-.756c-.546,0-.819.693-1.28,1.008s-.966.357-1.364.672a2.519,2.519,0,0,0-.672,1.679,13.391,13.391,0,0,0,.672,4.45,39.109,39.109,0,0,0,8.816,18.618c1.3,1.532,6.3,7.577,8.27,6.024,2.792-2.1.966-5.562-.966-7.221a55.371,55.371,0,0,1-9.173-9.907Z" transform="translate(93.704 21.466)" fill="#ffbbab"/>
    <path id="Path_11244" data-name="Path 11244" d="M116.446,59.52c-.945,1.448-1.868,2.939-2.729,4.45a2.1,2.1,0,0,0-.378,1.574,1.553,1.553,0,0,0,.8.8,4.765,4.765,0,0,0,4.576-.378,15.721,15.721,0,0,0,3.463-3.337,7.094,7.094,0,0,1,1.931-1.784,2.456,2.456,0,0,1,2.519,0,1.532,1.532,0,0,1,.357,2.267,1.147,1.147,0,0,0-1.469-.924,3.023,3.023,0,0,0-1.49,1.322,22.229,22.229,0,0,0-1.385,2.246,6.527,6.527,0,0,0-.735,1.826,5.961,5.961,0,0,0,1.574,4.366A5.625,5.625,0,0,1,124.4,73.5a5.436,5.436,0,0,1-.21,2.708,36.733,36.733,0,0,0-.567,11.251,2.351,2.351,0,0,1-.441,2.1,2.1,2.1,0,0,1-1.427.441c-2.414,0-4.807-.546-7.242-.483a40.238,40.238,0,0,1-4.492.231.651.651,0,0,1-.693-.861,46.808,46.808,0,0,0,.315-12.594,28.925,28.925,0,0,1-.924-5.814,2.855,2.855,0,0,1,.231-1.259,4.513,4.513,0,0,1,.735-1.049A16.624,16.624,0,0,0,113,61.64" transform="translate(99.792 34.643)" fill="#fff"/>
    <path id="Path_11245" data-name="Path 11245" d="M117.02,72.9a2.267,2.267,0,0,1-.819,1.847,3.841,3.841,0,0,0-.5.273c-.315.294-.273.8-.336,1.217a6.423,6.423,0,0,1-1.217,2.1,1.868,1.868,0,0,0,0,2.288c.378.378,1.008.441,1.322.882s0,1.868.651,2.309a.965.965,0,0,0,1.2-.378,2.749,2.749,0,0,0,.357-1.3q.735-7.074,1.343-14.21a1.532,1.532,0,0,0-.4-1.406c-.315-.441-.735-1.28-1.2-1.511-.525.777-.126,2.456-.126,3.358C117.209,69.9,117.146,71.412,117.02,72.9Z" transform="translate(105.325 40.677)" fill="#020202" opacity="0.1"/>
    <path id="Path_11246" data-name="Path 11246" d="M110.1,58.025a2.645,2.645,0,0,0-.525,1.217,2.393,2.393,0,0,0,.336.882,5.94,5.94,0,0,1,.525,2.1,2.855,2.855,0,0,0,.4,1.553,2.393,2.393,0,0,0,1.847.651h1.553a1.049,1.049,0,0,1,.567,0,.924.924,0,0,1,.4.4,11.125,11.125,0,0,1,.861,3.568,1.3,1.3,0,0,0,.273.567,1.091,1.091,0,0,0,.42.357,4.639,4.639,0,0,0,3.4,0,1.3,1.3,0,0,0,.693-.5,1.427,1.427,0,0,0,0-.945,17.106,17.106,0,0,0-.546-2.5,9.068,9.068,0,0,1-.672-3.379,18.721,18.721,0,0,1,.735-2.981,5.017,5.017,0,0,0-2.96-5.163,5.961,5.961,0,0,0-5.164.378c-.567.294-1.028.441-1.3,1.05A18.617,18.617,0,0,1,110.1,58.025Z" transform="translate(100.739 27.952)" fill="#ffbbab"/>
    <path id="Path_11247" data-name="Path 11247" d="M109.977,54.783a5.458,5.458,0,0,1-.147-1.175c0-1.343.777-2.876,2.1-2.918.945,0,1.784.714,2.75.714a7.829,7.829,0,0,0,1.175-.252,6.863,6.863,0,0,1,3.064,0,8.5,8.5,0,0,1,5.415,3.4,5.751,5.751,0,0,1,.21,6.3c-.693,1.049-1.763,1.805-2.5,2.834a21.256,21.256,0,0,1-1.154,1.868c-.378.441-1.259,1.154-1.889.84s-.672-1.343-1.112-1.784a15.345,15.345,0,0,0,1.238-1.091A1.469,1.469,0,0,0,119.464,62a.732.732,0,0,0-1.322,0,4.618,4.618,0,0,0-1.469-3.82,1.889,1.889,0,0,0-.546-.462,1.91,1.91,0,0,0-.693,0H113.5c-1.112,0-1.658.315-2.456-.63a5.08,5.08,0,0,1-1.07-2.309Z" transform="translate(101.013 24.939)" fill="#fc682d"/>
    <path id="Path_11248" data-name="Path 11248" d="M114.988,58.865a.672.672,0,0,1,.483.147.8.8,0,0,1,.168.5,15.514,15.514,0,0,1,0,2.792,2.247,2.247,0,0,1-.189.714.735.735,0,0,1-.609.378c-.273,0-.5-.231-.8-.294a1.049,1.049,0,0,0-.882.21,3.925,3.925,0,0,0-.63.693A13.766,13.766,0,0,1,111,65.645a13.056,13.056,0,0,1,1.679-3.589,1.7,1.7,0,0,1,.756-.735.772.772,0,0,0,.735-.273c.168-.273,0-.8-.189-1.154s-.672-.861-.378-1.112S114.736,58.844,114.988,58.865Z" transform="translate(102.299 33.724)" fill="#e0a194"/>
    <path id="Path_11249" data-name="Path 11249" d="M129.892,63.633a23.594,23.594,0,0,0,2.309-2.5,14.357,14.357,0,0,0,3.148-8.921,2.623,2.623,0,0,1,0-1.07.9.9,0,0,1,.735-.672,1.7,1.7,0,0,0,.462,0c.231,0,.336-.315.525-.483a.987.987,0,0,1,1.049,0,2.9,2.9,0,0,1,.819.777c.336.462.672.945.966,1.427a2.5,2.5,0,0,1,.462,1.259,2.855,2.855,0,0,1-1.028,1.868c-.651,0-1.154,1.742-1.322,2.1-.336.945-.714,1.889-1.133,2.792a39.881,39.881,0,0,1-10.831,14.105c-1.553,1.28-7.43,6.3-9.194,4.513-2.414-2.561,0-5.646,2.1-6.969a54.572,54.572,0,0,0,10.936-8.228Z" transform="translate(107.629 24.003)" fill="#ffbbab"/>
    <path id="Path_11250" data-name="Path 11250" d="M110.7,56.681a7.073,7.073,0,0,1,1.154,0,.168.168,0,0,1,.147,0h0a2.728,2.728,0,0,1,0,1.826,1.407,1.407,0,0,1-.4.588.609.609,0,0,1-.672,0,1.07,1.07,0,0,1-.336-.5,3.568,3.568,0,0,1-.357-1.91h0a1.637,1.637,0,0,1,.714,0" transform="translate(101.445 31.48)" fill="#fff"/>
    <path id="Path_11251" data-name="Path 11251" d="M109.369,57.362h-.189a.126.126,0,0,1,.189,0Z" transform="translate(100.299 32.225)" fill="#2f1073"/>
    <path id="Path_11252" data-name="Path 11252" d="M150.164,58.165a7.556,7.556,0,0,1-.945,3.232,33.08,33.08,0,0,1-16.183,15.889,2.582,2.582,0,0,0-1.07.672,2.644,2.644,0,0,0-.441.987c-1.616,6.3-1.259,12.72-2.414,19.017a2.477,2.477,0,0,1-.651,1.511,2.582,2.582,0,0,1-1.91.441h-1.364a93.953,93.953,0,0,1-9.676-1.029,2.246,2.246,0,0,1-1.49-.672,2.288,2.288,0,0,1-.21-1.637,86.057,86.057,0,0,0-.525-12.951,37.11,37.11,0,0,1,0-6.3,6.549,6.549,0,0,0,0-3.19,2.981,2.981,0,0,0-.5-.84,32.531,32.531,0,0,0-2.9-2.456,13.182,13.182,0,0,1-2.9-5.52c-.966-2.9-1.973-5.772-2.9-8.669-.693-2.1.4-3.086,1.973-3.883.567-.294,1.2-.567,1.847-.861A31.484,31.484,0,0,0,110.3,58.4a10.7,10.7,0,0,0,4.7,4.744.126.126,0,0,0-.126.126.483.483,0,0,0,.21.4c1.406,1.3,2.834,2.582,4.2,3.9a2.435,2.435,0,0,0,.945.609c.42,0,1.868-.378,1.805.4a.273.273,0,0,1,0,.126c0,.273-.252.483-.294.756a.84.84,0,0,0,.483.8,1.7,1.7,0,0,0,.965.168,3.611,3.611,0,0,0,1.07-.231c.567-.231,1.029-.63,1.574-.9a4.387,4.387,0,0,1,2.6-.147,10.5,10.5,0,0,0,2.813-.168,16.288,16.288,0,0,0,7.2-3.757,81.988,81.988,0,0,0,7.934-8.9,2.9,2.9,0,0,1,1.028-.861,1.889,1.889,0,0,1,1.973.5A2.813,2.813,0,0,1,150.164,58.165Z" transform="translate(94.473 26.28)" fill="#fff"/>
    <path id="Path_11253" data-name="Path 11253" d="M150.164,58.165a7.556,7.556,0,0,1-.945,3.232,33.08,33.08,0,0,1-16.183,15.889,2.582,2.582,0,0,0-1.07.672,2.644,2.644,0,0,0-.441.987c-1.616,6.3-1.259,12.72-2.414,19.017a2.477,2.477,0,0,1-.651,1.511,2.582,2.582,0,0,1-1.91.441h-1.364a93.953,93.953,0,0,1-9.676-1.029,2.246,2.246,0,0,1-1.49-.672,2.288,2.288,0,0,1-.21-1.637,86.057,86.057,0,0,0-.525-12.951,37.11,37.11,0,0,1,0-6.3,6.549,6.549,0,0,0,0-3.19,2.981,2.981,0,0,0-.5-.84,32.531,32.531,0,0,0-2.9-2.456,13.182,13.182,0,0,1-2.9-5.52c-.966-2.9-1.973-5.772-2.9-8.669-.693-2.1.4-3.086,1.973-3.883.567-.294,1.2-.567,1.847-.861A31.484,31.484,0,0,0,110.3,58.4a10.7,10.7,0,0,0,4.7,4.744.126.126,0,0,0-.126.126.483.483,0,0,0,.21.4c1.406,1.3,2.834,2.582,4.2,3.9a2.435,2.435,0,0,0,.945.609c.42,0,1.868-.378,1.805.4a.273.273,0,0,1,0,.126c0,.273-.252.483-.294.756a.84.84,0,0,0,.483.8,1.7,1.7,0,0,0,.965.168,3.611,3.611,0,0,0,1.07-.231c.567-.231,1.029-.63,1.574-.9a4.387,4.387,0,0,1,2.6-.147,10.5,10.5,0,0,0,2.813-.168,16.288,16.288,0,0,0,7.2-3.757,81.988,81.988,0,0,0,7.934-8.9,2.9,2.9,0,0,1,1.028-.861,1.889,1.889,0,0,1,1.973.5A2.813,2.813,0,0,1,150.164,58.165Z" transform="translate(94.473 26.28)" fill="url(#linear-gradient)"/>
    <path id="Path_11254" data-name="Path 11254" d="M113.3,73.6c-.168-.252-.315-.525-.5-.756a32.536,32.536,0,0,0-2.9-2.456,13.182,13.182,0,0,1-2.9-5.52c-.966-2.9-1.973-5.772-2.9-8.669-.693-2.1.4-3.086,1.973-3.883a3.212,3.212,0,0,1,.756,1.07,13.54,13.54,0,0,1,.693,2.75,18.534,18.534,0,0,0,2.645,6c1.238,1.973,2.414,3.988,3.652,5.961a1.364,1.364,0,0,1,.168.357,1.154,1.154,0,0,1,0,.588,10.264,10.264,0,0,0-.462,2.393C113.431,71.946,113.7,73.331,113.3,73.6Z" transform="translate(94.495 26.731)" fill="url(#linear-gradient-2)"/>
    <path id="Path_11255" data-name="Path 11255" d="M142.412,54.89a7.556,7.556,0,0,1-.945,3.232,33.08,33.08,0,0,1-16.183,15.889,2.582,2.582,0,0,0-1.07.672,2.644,2.644,0,0,0-.441.987c-1.616,6.3-1.259,12.72-2.414,19.017a2.477,2.477,0,0,1-.651,1.511,2.582,2.582,0,0,1-1.91.441h-1.364a2.1,2.1,0,0,1-1.091-.4,1.8,1.8,0,0,1-.546-1.091,47.984,47.984,0,0,1-.315-7.179,7.619,7.619,0,0,0-2.939-6.3,5.269,5.269,0,0,1-1.322-.9,1.029,1.029,0,0,1,0-1.427,1.26,1.26,0,0,1,.672-.21,32.749,32.749,0,0,0,4.072-.546,5.457,5.457,0,0,0,3.379-2.1c.693-1.049.84-2.393,1.6-3.4a7.745,7.745,0,0,1,3.757-2.1,31.485,31.485,0,0,0,12.72-9.152c1.511-1.826,2.666-5.122,4.534-6.486a2.267,2.267,0,0,1,.462-.462Z" transform="translate(102.225 29.555)" fill="url(#linear-gradient-3)"/>
    <g id="lYf0vm" transform="translate(66.097 48.174)">
      <path id="Path_11256" data-name="Path 11256" d="M113.453,155.048a183.683,183.683,0,0,1-27.5,16.414l-1.364.168h-.378a2.54,2.54,0,0,1-2.372-3.065,19.645,19.645,0,0,1,.4-2.267q1.826-8.564,3.673-17.107a.966.966,0,0,0-.42-1.133L63.518,130.994a.882.882,0,0,0-1.07-.126c-1.3.672-2.645,1.28-3.988,1.889-4.723,2.225-9.278,4.324-13.937,6.423a2.435,2.435,0,0,1-3.379-1.322l-.273-.63v-.336a50.125,50.125,0,0,1,.882-5.017,219.9,219.9,0,0,1,8.627-25.629A20.465,20.465,0,0,1,59.173,95.5a26.888,26.888,0,0,1,10.075-3.3,72.86,72.86,0,0,1,8.27-.714h2.624a1.385,1.385,0,0,0,.924-.546c2.1-3.065,4.072-6.3,6.3-9.236a150.77,150.77,0,0,1,9.991-12.741,157.613,157.613,0,0,1,11.67-10.747,93.974,93.974,0,0,1,13.224-9.781,92.356,92.356,0,0,1,22.417-9.215c1.511-.462,3.044-.861,4.576-1.28l3.148-.336h.567a3.883,3.883,0,0,1,3.232,2.645,1.24,1.24,0,0,1,0,.273,16.641,16.641,0,0,1,.294,2.1,54.112,54.112,0,0,1-.21,11.062,77.915,77.915,0,0,1-3.883,19.479,136.287,136.287,0,0,1-7.556,17.086,87.484,87.484,0,0,1-8.1,13.434A227.825,227.825,0,0,1,120.9,122.262a1.175,1.175,0,0,0-.315,1.28c.378,1.637.735,3.274,1.029,4.912a38.076,38.076,0,0,1,.84,10.348,20.612,20.612,0,0,1-9,16.246Z" transform="translate(-40.87 -37.61)" fill="#fff"/>
    </g>
    <path id="Path_11257" data-name="Path 11257" d="M64.924,139.726,51.7,129.42s5.688-17.527,13.916-37.929H68.24a1.385,1.385,0,0,0,.924-.546c2.1-3.065,4.072-6.3,6.3-9.236a150.768,150.768,0,0,1,9.991-12.741,157.624,157.624,0,0,1,11.67-10.747,93.972,93.972,0,0,1,13.224-9.781,92.356,92.356,0,0,1,22.417-9.215c1.511-.462,3.044-.861,4.576-1.28l3.148-.336h.567a3.883,3.883,0,0,1,3.232,2.645,1.24,1.24,0,0,1,0,.273C136.793,46.615,82.66,91.344,64.924,139.726Z" transform="translate(37.129 10.564)" fill="url(#linear-gradient-4)"/>
    <path id="Path_11258" data-name="Path 11258" d="M72.34,75.369a15.785,15.785,0,0,0,4.429-3.463C79.351,75.327,80.254,79.693,82,83.6A4.618,4.618,0,0,0,83.8,85.948a5.1,5.1,0,0,0,2.393.378h4.849a11.943,11.943,0,0,0,5-1.07c.861-.42,1.7-1.259,1.448-2.1s-1.469-1.217-2.456-1.217a12.069,12.069,0,0,1-3.694-.336,6.465,6.465,0,0,1-3.379-3.4,27.076,27.076,0,0,1-1.637-4.408,50.941,50.941,0,0,0-3.19-7.472,14.021,14.021,0,0,0-2.876-4.009,6.024,6.024,0,0,0-4.492-1.679c-2.981.315-4.912,3.337-7.682,4.471a21.325,21.325,0,0,0-3.841,1.343,7.788,7.788,0,0,0-1.973,2.1A22.669,22.669,0,0,0,58.76,76.1,20.255,20.255,0,0,0,72.34,75.369Z" transform="translate(44.888 35.859)" fill="url(#linear-gradient-5)"/>
    <path id="Path_11259" data-name="Path 11259" d="M68.591,59.812s4.2-.378,5.751,1.154a22.228,22.228,0,0,1,4.891,9.781c.378,1.385.84,2.729,1.154,4.2A13.874,13.874,0,0,0,81.521,78.7a3.022,3.022,0,0,0,1.616,1.448,5.625,5.625,0,0,0,1.679.126,13.284,13.284,0,0,1,2.1.147.818.818,0,0,1,.378.126.756.756,0,0,1,.147.357,2.1,2.1,0,0,1-.819,1.91,8.774,8.774,0,0,1-5.709.651c-2.309-.777-3.044-5.059-3.883-7.053-1.217-2.918-2.519-5.772-3.9-8.606a2.666,2.666,0,0,0-.672-.987,2.876,2.876,0,0,0-1.154-.441L66.24,65.29C66.723,63.464,68.066,61.617,68.591,59.812Z" transform="translate(53.108 34.918)" fill="#ffbbab"/>
    <circle id="Ellipse_286" data-name="Ellipse 286" cx="12.405" cy="12.405" r="12.405" transform="translate(131.879 83.752)" fill="#2f1073"/>
    <circle id="Ellipse_287" data-name="Ellipse 287" cx="8.249" cy="8.249" r="8.249" transform="translate(136.035 87.908)" fill="#473f47"/>
    <path id="Path_11260" data-name="Path 11260" d="M82.485,63.955,62.817,102.912l-18.66,8.4s-3.631,2.414-3.274-2.54S50.874,75.982,53.75,72.12,65.378,61.205,82.485,63.955Z" transform="translate(25.214 38.835)" fill="#2f1073"/>
    <path id="Path_11261" data-name="Path 11261" d="M99.475,78.15,64.968,104.639,59.93,128.022a5.394,5.394,0,0,0,6.675,1.6c4.723-1.574,29.134-17.841,32.177-21.515S106.4,94.018,99.475,78.15Z" transform="translate(46.174 55.117)" fill="#2f1073"/>
    <path id="Path_11262" data-name="Path 11262" d="M87.9,41.249l16.624,12.846s.861-13.308,0-16.1S87.9,41.249,87.9,41.249Z" transform="translate(76.912 10.179)" fill="#2f1073"/>
    <path id="Path_11263" data-name="Path 11263" d="M44.055,66.7l-3.3,5.856,22.144,17L68,85.192Z" transform="translate(44.795 73.305)" fill="#2f1073"/>
    <path id="Path_11264" data-name="Path 11264" d="M69.122,84.14s-63.935,68.091-22,99.366,90.4,10.663,90.4,10.663-69.267,15.3-79.363-23.551c-5.9-22.732,33.1-69.456,33.1-69.456Z" transform="translate(16.432 61.7)" opacity="0.36" fill="url(#linear-gradient-6)"/>
    <path id="Path_11265" data-name="Path 11265" d="M133.522,157.586l15.574,9.466H109.552l15.574-10.075V148.77l-2.6-3.086V135.9C97.042,127.088,97.651,72.43,97.651,72.43H161v.651c.378,6,2.5,52.013-21.368,62.046a21.434,21.434,0,0,1-2.9,1.008v8.4l-2.1,2.708-1.112,1.406Z" transform="translate(87.627 48.831)" fill="#2f1073"/>
    <path id="Path_11266" data-name="Path 11266" d="M109.6,116.094a5.856,5.856,0,0,1-4.2-1.574,5.352,5.352,0,0,1-1.028-5.583l2.9.84a2.54,2.54,0,0,0,.378,2.624,3.379,3.379,0,0,0,3.19.525,2.456,2.456,0,0,0,1.784-1.427c-.252-.882-4.2-4.2-7.262-6.99-8.4-7.346-18.891-16.477-15.47-23.824a7.829,7.829,0,0,1,5.457-4.66c6.717-1.553,15.616,5.667,15.994,5.982l-1.91,2.33c-2.246-1.847-9.047-6.3-13.413-5.373a4.891,4.891,0,0,0-3.4,3c-2.477,5.289,7.871,14.294,14.693,20.255,6.087,5.31,8.753,7.745,8.228,9.991a5.289,5.289,0,0,1-3.9,3.631A8.4,8.4,0,0,1,109.6,116.094Z" transform="translate(78.367 52.541)" fill="#2f1073"/>
    <path id="Path_11267" data-name="Path 11267" d="M130.623,115.96a7.241,7.241,0,0,1-1.994-.273,5.289,5.289,0,0,1-3.925-3.631c-.525-2.246,2.1-4.681,8.228-9.991C139.775,96.1,150.123,87.1,147.625,81.81a4.6,4.6,0,0,0-3.19-2.771c-4.765-1.049-12.594,4.2-15.134,6.3L127.5,82.985c.441-.336,10.495-8.4,17.715-6.864a7.493,7.493,0,0,1,5.268,4.429c3.442,7.346-7.053,16.477-15.47,23.824-3.128,2.729-7.011,6.108-7.263,7.2.168.525,1.029,1.008,1.784,1.217a3.274,3.274,0,0,0,3.169-.525,2.54,2.54,0,0,0,.273-2.6l2.918-.84a5.331,5.331,0,0,1-1.05,5.583,5.835,5.835,0,0,1-4.219,1.553Z" transform="translate(117.288 52.675)" fill="#2f1073"/>
    <path id="Path_11268" data-name="Path 11268" d="M139.672,135.148a21.433,21.433,0,0,1-2.9,1.008v.21H122.524V135.9C97.042,127.088,97.651,72.43,97.651,72.43h15.533s-6.885,36.208,16.267,58.142C134.383,135.274,136.167,134.1,139.672,135.148Z" transform="translate(87.627 48.831)" fill="#fff" opacity="0.28"/>
    <path id="Path_11269" data-name="Path 11269" d="M123.227,102.88a9.991,9.991,0,0,1-2.9,0Z" transform="translate(112.553 82.295)" fill="#2f1073"/>
    <path id="Path_11270" data-name="Path 11270" d="M110.538,88.5v9.131l2.267,3.044v8.459l-6.129,10.1H94.88l15.281-9.529v-8.837l-3.023-3.694V87.98Z" transform="translate(104.272 96.692)" fill="#fff" opacity="0.28"/>
    <path id="Path_11271" data-name="Path 11271" d="M122.524,136.375v-.462C97.042,127.1,97.651,72.44,97.651,72.44h4.513s-2.771,48.13,21.62,63.389l.84.546Z" transform="translate(87.627 48.842)" fill="url(#linear-gradient-7)"/>
    <path id="Path_11272" data-name="Path 11272" d="M119.143,102.79v8.4l-2.1,2.708C112.595,112.361,111.9,109.087,119.143,102.79Z" transform="translate(105.259 82.197)" fill="#2f1073"/>
    <path id="Path_11273" data-name="Path 11273" d="M119.187,135.137a21.43,21.43,0,0,1-2.9,1.008c23.593-20.465,11.376-63.7,11.376-63.7l12.888.651C140.869,79.094,142.968,125.1,119.187,135.137Z" transform="translate(108.113 48.842)" fill="url(#linear-gradient-8)"/>
    <path id="Path_11274" data-name="Path 11274" d="M63.694,62.56l1.469-3a59.609,59.609,0,0,1,4.807-8.522c3.8-5.226,5.772-11.544,9.047-17.128a2.1,2.1,0,0,0,.378-1.029c0-.819-.966-1.28-1.784-1.49a6.7,6.7,0,0,0-3.337-.231,2.939,2.939,0,0,0-2.288,2.225,9.761,9.761,0,0,0,.147,1.91,8.669,8.669,0,0,1-1.763,4.933L62.1,53.618A10.726,10.726,0,0,0,60,58.76,4.009,4.009,0,0,0,63.694,62.56Z" transform="translate(46.251 3.351)" fill="#ffbbab"/>
    <path id="Path_11275" data-name="Path 11275" d="M63.757,52.954a4.723,4.723,0,0,0,.693-3.463,15.785,15.785,0,0,1,0-4.765,9,9,0,0,0,.252-4.7.2.2,0,0,0-.126-.189.315.315,0,0,0-.336,0,2.435,2.435,0,0,0-1.07,1.364c-.882,2.1-3.568,5.646-3.19,7.934A4.009,4.009,0,0,0,63.757,52.954Z" transform="translate(46.188 12.957)" fill="url(#linear-gradient-9)"/>
    <path id="Path_11276" data-name="Path 11276" d="M49.11,34.918l4.324-5.478,5.143,4.7-4.849,4.366Z" transform="translate(53.971 32.357)" fill="#2f1073"/>
    <path id="Path_11277" data-name="Path 11277" d="M49.11,34.918l4.324-5.478,5.143,4.7-4.849,4.366Z" transform="translate(53.971 32.357)" fill="url(#linear-gradient-10)"/>
    <path id="Path_11278" data-name="Path 11278" d="M64.988,57.315l1.994.693c.693.231,2.1,1.154,2.75.525s0-2.54,0-3.232a34.843,34.843,0,0,0-1.784-7.283,4.618,4.618,0,0,1-.357-3.736A2.1,2.1,0,0,1,69.4,43.21a2.225,2.225,0,0,1,1.826,1.008,9.32,9.32,0,0,1,.609,2.1,2.792,2.792,0,0,1,.252,1.511,5.121,5.121,0,0,0-.294.714,1.742,1.742,0,0,0,.147.8l2.624,6.906a8.4,8.4,0,0,1,.8,4.765,5.017,5.017,0,0,1-5.247,3.379,16.015,16.015,0,0,1-7.032-2.435c-.231-.126-.5-.357-.42-.609a.63.63,0,0,1,.273-.252,4.7,4.7,0,0,0,1.658-1.616A2.477,2.477,0,0,0,64.988,57.315Z" transform="translate(49.155 16.719)" fill="#ffbbab"/>
    <path id="Path_11279" data-name="Path 11279" d="M65.041,49.823a1.385,1.385,0,0,1-.4.756,2.393,2.393,0,0,1-1.07.357,2.1,2.1,0,0,0-1.07.441.588.588,0,0,0,0,.567l.567,2.414a.819.819,0,0,1,0,.546.924.924,0,0,1-.525.441c-.84.4-1.91.756-2.645.189a2.393,2.393,0,0,1-.735-1.259,27.5,27.5,0,0,1-1.931-8.4,6.066,6.066,0,0,1,1.679-4.765,5.835,5.835,0,0,1,4.2-1.28,2.1,2.1,0,0,1,1.679.987c.231.42,0,.861.147,1.322a12.8,12.8,0,0,0,.357,1.994,7.994,7.994,0,0,0,.315.924,2.6,2.6,0,0,1,.294.8,3.421,3.421,0,0,1-.336,1.49,8.4,8.4,0,0,0-.441,1.763A1,1,0,0,1,65.041,49.823Z" transform="translate(43.182 12.981)" fill="#ffbbab"/>
    <path id="Path_11280" data-name="Path 11280" d="M79.5,42.135a3.3,3.3,0,0,1-1.868,2.477c-2.267,1.07-5.5.924-4.639,4.2a8.9,8.9,0,0,1-.714,7.871c-.525.777-1.175,1.448-1.637,2.267-.756,1.259-.987,2.792-1.805,4.009-1.637,2.414-4.954,2.918-7.85,2.918a7.976,7.976,0,0,0-3.232.609c-2.372,1.175-3.442,4.66-6.066,4.786s-3.526-3.3-5-4.975a7.074,7.074,0,0,1-1.448-7.85c2.708-5.541,11.544-5.205,14.882-10.495,2.057-3.065,2.057-7.262,5.625-9.236A13.371,13.371,0,0,1,78.16,39.3,2.687,2.687,0,0,1,79.5,42.135Z" transform="translate(29.371 10.405)" fill="#473f47"/>
    <path id="Path_11281" data-name="Path 11281" d="M71.111,71.414a2.582,2.582,0,0,0,.861.462,8.585,8.585,0,0,0,3.358.147,46.722,46.722,0,0,1,4.849,0,1.889,1.889,0,0,1,1.112.294c.546.462.378,1.322.147,1.994a89.459,89.459,0,0,1-3.505,8.984,7.514,7.514,0,0,1-2.309,3.274,7.011,7.011,0,0,1-2.729.987,46.348,46.348,0,0,1-5.9.819,10.5,10.5,0,0,1-5.688-.756A8.9,8.9,0,0,1,57.362,82.5,11.607,11.607,0,0,1,56.8,76.01c.525-2.309,1.574-2.981.924-5.457a57.387,57.387,0,0,1-1.805-9.382,23.089,23.089,0,0,1,.8-8.564,11.4,11.4,0,0,1,1.6-3.61,5.688,5.688,0,0,1,3.128-2.225A3.715,3.715,0,0,1,65,47.758c2.456,2.666,5.814,2.813,8.606,5.1a.9.9,0,0,1,.357.441.819.819,0,0,1,0,.588l-1.826,4.387a6.779,6.779,0,0,1-.693,1.343c-.252.357-.567.651-.8,1.008a6.654,6.654,0,0,0-.924,3.547C69.7,66.271,69.2,69.923,71.111,71.414Z" transform="translate(41.647 20.504)" fill="#2f1073"/>
    <path id="Path_11282" data-name="Path 11282" d="M63.313,68.879a2.1,2.1,0,0,1-2.1-.147c-1.469-1.091-.336-1.847,0-2.981a11.859,11.859,0,0,0,.357-4.828c-.231-3.128-.483-6.3-.714-9.4.126.777,3.82,1.868,5.268,2.855-.252.357-.567.651-.8,1.008-1.637,2.393-.777,7.179-.735,9.886C64.7,66.57,64.531,68.207,63.313,68.879Z" transform="translate(46.778 25.851)" fill="url(#linear-gradient-11)"/>
    <path id="Path_11283" data-name="Path 11283" d="M78.562,44.206a14.462,14.462,0,0,1,0,7.3,1.05,1.05,0,0,1-.4.252.546.546,0,0,1-.357,0c-.945-.189-6.3-3.694-12.594-1.49a2.309,2.309,0,1,1-.756-4.471s8.249-2.75,10.033-7.64c.231-.735.693-1.008,1.217-.924a2.1,2.1,0,0,1,.9.42h0A18.471,18.471,0,0,1,78.562,44.206Z" transform="translate(48.553 10.139)" fill="#2f1073"/>
    <path id="Path_11284" data-name="Path 11284" d="M71.726,44.2a14.462,14.462,0,0,1,0,7.3.462.462,0,0,1-.315.252h0c-.84,0-2.1-3.148-2.687-7.032s-.546-6.927.147-7.493h.168c.231,0,.462.147.735.5h0A18.471,18.471,0,0,1,71.726,44.2Z" transform="translate(55.389 10.147)" fill="url(#linear-gradient-12)"/>
    <path id="Path_11285" data-name="Path 11285" d="M79.481,69.418a1.217,1.217,0,0,0-.861,1.364c0,.336.4.672.252.987a.651.651,0,0,1-.483.315,8.4,8.4,0,0,1-5.961-.4.965.965,0,0,0,.252.945,3.3,3.3,0,0,0,1.238,1.28,3.148,3.148,0,0,0,1.091.21,13.916,13.916,0,0,0,8.123-2.75,2.351,2.351,0,0,0,.588-.525.714.714,0,0,0,0-.756c-.126-.315-.5-.42-.84-.483a16.8,16.8,0,0,0-1.763-.168,4.072,4.072,0,0,0-1.637-.021Z" transform="translate(59.871 45.441)" fill="#2f1073"/>
  </g>
</svg>
