<?xml version="1.0" ?><!-- Uploaded to: SVG Repo, www.svgrepo.com, Generator: SVG Repo Mixer Tools -->
<svg width="800px" height="800px" viewBox="0 0 64 64" data-name="Layer 1" id="Layer_1" xmlns="http://www.w3.org/2000/svg"><defs><style>.cls-1{fill:#190933;}</style></defs><title/><path class="cls-1" d="M18,6.5A1.5,1.5,0,1,0,16.5,5,1.5,1.5,0,0,0,18,6.5Zm0-2a.5.5,0,1,1-.5.5A.5.5,0,0,1,18,4.5Z"/><circle class="cls-1" cx="22" cy="5" r="1"/><circle class="cls-1" cx="14" cy="5" r="1"/><path class="cls-1" d="M32,18.5A14.5,14.5,0,1,0,46.5,33,14.51,14.51,0,0,0,32,18.5Zm0,27A12.5,12.5,0,1,1,44.5,33,12.52,12.52,0,0,1,32,45.5Z"/><path class="cls-1" d="M62.2,56.54A33.69,33.69,0,0,0,51.32,45.43a2,2,0,0,0-2.26.09L47.49,44A18.95,18.95,0,0,0,35,14.26V5a5,5,0,0,0-5-5H6A5,5,0,0,0,1,5V9a1,1,0,0,0-1,1v4a1,1,0,0,0,1,1v2a1,1,0,0,0-1,1v4a1,1,0,0,0,1,1V59a5,5,0,0,0,5,5H30a5,5,0,0,0,5-5V51.74a19,19,0,0,0,9.1-4.1l1.42,1.42a2,2,0,0,0-.09,2.26A33.69,33.69,0,0,0,56.54,62.2l.63.63a4,4,0,0,0,5.66-5.66ZM60.15,57l-1.56,1.57L57,60.15c-.72-.46-1.41-.95-2.08-1.45l1.88-1.88a.5.5,0,0,0-.71-.71l-2,2c-.52-.42-1-.86-1.52-1.31l4.18-4.17A32.45,32.45,0,0,1,60.15,57ZM49,33A17,17,0,0,1,33.89,49.89l-.44,0C33,50,32.49,50,32,50a17,17,0,0,1,0-34c.49,0,1,0,1.45.07l.44,0A17,17,0,0,1,49,33ZM6,2H30a3,3,0,0,1,3,2.5H30a4.34,4.34,0,0,0-3.35,1.65A3.45,3.45,0,0,1,24,7.5H12A3.45,3.45,0,0,1,9.35,6.15,4.34,4.34,0,0,0,6,4.5H3.05A3,3,0,0,1,6,2ZM33,52v7a3,3,0,0,1-3,3H6a3,3,0,0,1-3-3V5.5H6A3.45,3.45,0,0,1,8.65,6.85,4.34,4.34,0,0,0,12,8.5H24a4.34,4.34,0,0,0,3.35-1.65A3.45,3.45,0,0,1,30,5.5h3V14l-1,0a19,19,0,0,0-16.37,9.41L12,20.8a3.46,3.46,0,1,0-.63.78l3.79,2.7a18.87,18.87,0,0,0,2,20.47L12.55,48a2.5,2.5,0,0,0-1.05,2v2.52a3.5,3.5,0,1,0,1,0V50a1.49,1.49,0,0,1,.63-1.22l4.61-3.3A18.94,18.94,0,0,0,32,52ZM9,21.5A2.5,2.5,0,1,1,11.5,19,2.5,2.5,0,0,1,9,21.5Zm3,32A2.5,2.5,0,1,1,9.5,56,2.5,2.5,0,0,1,12,53.5Zm34.89-8.73,1.44,1.44-2.12,2.12L44.84,47A19.26,19.26,0,0,0,46.89,44.77Zm.24,5.47,3.12-3.12a32.12,32.12,0,0,1,5.85,4.76L51.88,56.1A31.73,31.73,0,0,1,47.13,50.24ZM61.41,61.41a2,2,0,0,1-2.82,0l2.82-2.82a2,2,0,0,1,0,2.82Z"/><path class="cls-1" d="M33.23,25a1.55,1.55,0,0,0-2.46,0L23.44,35.61A2.16,2.16,0,0,0,25.21,39H38.79a2.16,2.16,0,0,0,1.77-3.39Zm5.7,11.89a.15.15,0,0,1-.14.09H25.21a.15.15,0,0,1-.14-.09.16.16,0,0,1,0-.16l6.92-10,6.92,10A.16.16,0,0,1,38.93,36.91Z"/><path class="cls-1" d="M32,29.5a.5.5,0,0,0-.5.5v3a.5.5,0,0,0,1,0V30A.5.5,0,0,0,32,29.5Z"/><path class="cls-1" d="M32.19,34.54a.5.5,0,0,0-.38,0,.53.53,0,0,0-.27.27.43.43,0,0,0,0,.19.47.47,0,0,0,.15.35.36.36,0,0,0,.16.11.47.47,0,0,0,.38,0,.36.36,0,0,0,.16-.11.48.48,0,0,0,0-.7A.36.36,0,0,0,32.19,34.54Z"/><path class="cls-1" d="M43.65,13.35a.48.48,0,0,0,.7,0l2-2a.49.49,0,1,0-.7-.7l-2,2A.48.48,0,0,0,43.65,13.35Z"/><path class="cls-1" d="M48.78,13.55l-2,1a.5.5,0,0,0,.22.95.54.54,0,0,0,.22-.05l2-1a.5.5,0,0,0-.44-.9Z"/><path class="cls-1" d="M42.5,11V9a.5.5,0,0,0-1,0v2a.5.5,0,0,0,1,0Z"/></svg>