<svg xmlns="http://www.w3.org/2000/svg" xmlns:xlink="http://www.w3.org/1999/xlink" width="327.167" height="274" viewBox="0 0 327.167 274">
  <defs>
    <linearGradient id="linear-gradient" x1="0.535" y1="2.693" x2="0.457" y2="-1.742" gradientUnits="objectBoundingBox">
      <stop offset="0.01"/>
      <stop offset="0.13" stop-opacity="0.69"/>
      <stop offset="0.25" stop-opacity="0.322"/>
      <stop offset="1" stop-opacity="0"/>
    </linearGradient>
    <linearGradient id="linear-gradient-2" x1="-2.748" y1="1.259" x2="3.502" y2="-0.097" xlink:href="#linear-gradient"/>
    <linearGradient id="linear-gradient-3" x1="0.67" y1="1.411" x2="0.229" y2="-1.773" xlink:href="#linear-gradient"/>
    <linearGradient id="linear-gradient-4" x1="0.608" y1="1.742" x2="0.247" y2="-2.614" xlink:href="#linear-gradient"/>
    <linearGradient id="linear-gradient-5" x1="65.003" y1="0.214" x2="66.583" y2="1.247" xlink:href="#linear-gradient"/>
    <linearGradient id="linear-gradient-6" x1="44.659" y1="1.65" x2="45.314" y2="-1.164" xlink:href="#linear-gradient"/>
    <linearGradient id="linear-gradient-7" x1="18.062" y1="-0.458" x2="19.596" y2="1.916" xlink:href="#linear-gradient"/>
    <linearGradient id="linear-gradient-8" x1="1.107" y1="-1.085" x2="-0.786" y2="3.452" xlink:href="#linear-gradient"/>
    <linearGradient id="linear-gradient-9" x1="168.944" y1="-0.351" x2="170.783" y2="1.967" xlink:href="#linear-gradient"/>
    <linearGradient id="linear-gradient-10" x1="0.535" y1="2.695" x2="0.457" y2="-1.744" xlink:href="#linear-gradient"/>
    <linearGradient id="linear-gradient-11" x1="-2.746" y1="1.258" x2="3.506" y2="-0.097" xlink:href="#linear-gradient"/>
    <linearGradient id="linear-gradient-12" x1="0.535" y1="2.694" x2="0.457" y2="-1.744" xlink:href="#linear-gradient"/>
    <linearGradient id="linear-gradient-13" x1="-2.745" y1="1.259" x2="3.506" y2="-0.097" xlink:href="#linear-gradient"/>
    <linearGradient id="linear-gradient-14" x1="1.43" y1="1.994" x2="-0.71" y2="-2.009" xlink:href="#linear-gradient"/>
  </defs>
  <g id="World_wide_web_Monochromatic" data-name="World wide web_Monochromatic" transform="translate(0.007 -0.004)">
    <path id="Path_11156" data-name="Path 11156" d="M94.4,33.553C83.215,47.334,76.247,64.468,66.6,79.521c-7.134,11.248-15.838,21.32-23.091,32.52-14.459,22.306-23.186,49.5-21.593,76.669s14.269,53.994,35.4,68.869c12.972,9.144,28.323,13.484,43.59,16.3,51.4,9.512,106.729,2.188,150.652-28.145,7.539-5.208,14.756-11.082,22.937-15.03,21.01-10.154,48.263-7.8,63.495-26.444,9.168-11.225,11.189-27.277,10.88-42.247-.369-17.978-3.888-36.86-14.839-50.344-14.269-17.681-37.574-22.413-56.86-33.293-18.8-10.547-33.959-27.134-50.106-41.949C188.219.771,132.334-13.165,94.4,33.553Z" transform="translate(-21.74 -3.78)" fill="#2f1073" opacity="0.18" style="isolation: isolate"/>
    <path id="Path_11157" data-name="Path 11157" d="M251.717,157.781a8.038,8.038,0,0,1-2.533,5.874,8.43,8.43,0,0,1-5.03,2.283,6.253,6.253,0,0,1-1.058,0l-59.06-1.189a8.692,8.692,0,0,1-8.6-8.549,8.085,8.085,0,0,1,2.509-5.886,8.644,8.644,0,0,1,6.088-2.378h2.009a16.457,16.457,0,0,1-.63-4.483,15.921,15.921,0,0,1,4.97-11.581,16.467,16.467,0,0,1,4.756-3.175,17.181,17.181,0,0,1,7.229-1.427l5.018.107a17.431,17.431,0,0,1,15.089,9.346,10.214,10.214,0,0,1,4.637-.987h1.3a10.321,10.321,0,0,1,10.214,10.143v.488a9.513,9.513,0,0,1-.4,2.735l4.887.1A8.728,8.728,0,0,1,251.717,157.781Z" transform="translate(7.317 19.564)" fill="#fff"/>
    <path id="Path_11158" data-name="Path 11158" d="M244.155,162.274a6.253,6.253,0,0,1-1.058,0l-59.06-1.189a8.692,8.692,0,0,1-8.6-8.549,8.085,8.085,0,0,1,2.509-5.886c-2.378,14.59,12.9,12.5,12.9,12.5h38.37Z" transform="translate(7.317 23.228)" fill="url(#linear-gradient)"/>
    <path id="Path_11159" data-name="Path 11159" d="M188.783,149.448l-4.292-1.629a16.456,16.456,0,0,1-.63-4.483,15.921,15.921,0,0,1,4.97-11.581,16.468,16.468,0,0,1,4.756-3.175C181.708,138.758,188.783,149.448,188.783,149.448Z" transform="translate(8.909 19.812)" fill="url(#linear-gradient-2)"/>
    <ellipse id="Ellipse_282" data-name="Ellipse 282" cx="75.552" cy="68.239" rx="75.552" ry="68.239" transform="translate(50.488 123.886)" fill="#2f1073" opacity="0.23" style="isolation: isolate"/>
    <path id="Path_11160" data-name="Path 11160" d="M229.835,167.452a72.686,72.686,0,0,1-14.685,43.9h0l-.155.214a72.972,72.972,0,1,1,14.839-44.113Z" transform="translate(-9.991 13.365)" fill="#2f1073"/>
    <path id="Path_11161" data-name="Path 11161" d="M132.232,131.418c-4.007,1.653-8.43,2.045-12.544,3.4s-8.24,4.09-9.3,8.323c-.547,2.128-.262,4.495-1.308,6.421-1.391,2.592-4.649,3.567-6.623,5.707-3.757,4.138-1.284,11.236,3.306,14.435s10.452,3.686,15.945,4.625a7.55,7.55,0,0,1,4.114,1.629c3.2,3.056-.345,8.585,1.011,12.794.761,2.378,3.008,4.007,4.031,6.29,1.962,4.352-1.011,9.156-2.973,13.508A33.555,33.555,0,0,0,127,233.664a4.9,4.9,0,0,1-.452.559,73.5,73.5,0,0,1-21.177-14.1c-6.028-8.454-10.8-17.669-10.3-27.8.273-5.493,2.1-10.8,2.449-16.266.571-8.882-2.64-18.525,1.712-26.278,2.378-4.292,7.015-9,4.423-13.163-4.578.666-9.512.773-13.71-.82A73.007,73.007,0,0,1,144.86,95.2C149.378,108.113,145.787,125.711,132.232,131.418Z" transform="translate(-8.844 13.502)" fill="url(#linear-gradient-3)"/>
    <path id="Path_11162" data-name="Path 11162" d="M217.66,164.937a72.83,72.83,0,0,1-1.3,13.757,49.489,49.489,0,0,0-5.434,5.149c-5.767,6.754-7.015,16.123-7.955,24.97h0a1.755,1.755,0,0,1-.059.559.481.481,0,0,0-.1-.345,14.685,14.685,0,0,0-2.889-6.219c-1.641-1.772-4.554-2.652-6.552-1.26q-1.427-3.567-2.866-7.075c-5.945,0-12.081,0-17.669-2.1s-10.214-6.135-14.685-10.071a98.225,98.225,0,0,0-.38-20.475A71.057,71.057,0,0,0,202.9,138.743a51.557,51.557,0,0,0-29.726,7.669c-1.9,1.189-3.829,2.521-6.052,2.711a13.079,13.079,0,0,1-4.162-.571l-14.376-3.65c-1.8-9.251,4.613-18.537,12.854-23.115,6.183-3.424,13.686-2.759,19.619-5.755,4.067-2.045,5.256-5.624,8.811-8.252h.071a72.841,72.841,0,0,1,27.717,57.157Z" transform="translate(2.184 15.88)" fill="url(#linear-gradient-4)"/>
    <path id="Path_11163" data-name="Path 11163" d="M164.327,145.154c-.428,1.4-.832,3.044,0,4.221a3.567,3.567,0,0,0,1.558,1.106,4.269,4.269,0,0,0,4.435-.464,5.755,5.755,0,0,0,1.344-2.521,58.63,58.63,0,0,0,2.378-10.475,1.89,1.89,0,0,0,0-1,1.7,1.7,0,0,0-.844-.761c-1.891-1.011-4.851-1.819-5.945.416C165.908,138.555,165.278,142.11,164.327,145.154Z" transform="translate(5.125 20.883)" fill="#fbc4d6"/>
    <path id="Path_11164" data-name="Path 11164" d="M170.218,145.019a2.664,2.664,0,0,1,1.189.107,2.093,2.093,0,0,1,.666.583l4.1,4.6c.8.892,1.629,2.117,1.07,3.175a2.378,2.378,0,0,1-1.76,1.046,10.428,10.428,0,0,1-5.755-1.13c-1.26-.547-2.509-1.189-3.734-1.784a6.16,6.16,0,0,1-2.319-1.831c-.939-1.427-1.189-4.851.452-5.945.844-.535,1.581-.155,2.378.214A7.907,7.907,0,0,0,170.218,145.019Z" transform="translate(4.953 22.647)" fill="#2f1073"/>
    <path id="Path_11165" data-name="Path 11165" d="M184.5,157.839a1.76,1.76,0,0,1-.083.785,1.558,1.558,0,0,1-.594.583,5.089,5.089,0,0,1-2.64.892,3.068,3.068,0,0,1-2.485-1.118,5.113,5.113,0,0,1-.773-2.295,26.7,26.7,0,0,1-.511-5.327.737.737,0,0,1,.7-.88c1.474-.309,4.411-1.082,5.16.725a21,21,0,0,1,1.225,6.635Z" transform="translate(7.687 23.87)" fill="#fbc4d6"/>
    <path id="Path_11166" data-name="Path 11166" d="M190.792,156.563a14.03,14.03,0,0,1,3.722.713,4.625,4.625,0,0,1,2.711,2.485,2.568,2.568,0,0,1,.083,1.784,3.841,3.841,0,0,1-2.021,1.914,25.779,25.779,0,0,1-13.769,2.961,4.756,4.756,0,0,1-3.341-1.189,5.232,5.232,0,0,1-.88-3.341l-.166-5.589a6.956,6.956,0,0,1,3.068.868c1.76.595,2.449-.832,3.9-1.189C185.988,155.54,188.866,156.373,190.792,156.563Z" transform="translate(7.637 24.968)" fill="#2f1073"/>
    <path id="Path_11167" data-name="Path 11167" d="M170.218,145.019a2.664,2.664,0,0,1,1.189.107,2.093,2.093,0,0,1,.666.583l4.1,4.6c.8.892,1.629,2.117,1.07,3.175a2.378,2.378,0,0,1-1.76,1.046,10.428,10.428,0,0,1-5.755-1.13c-1.26-.547-2.509-1.189-3.734-1.784a6.16,6.16,0,0,1-2.319-1.831c-.939-1.427-1.189-4.851.452-5.945.844-.535,1.581-.155,2.378.214A7.907,7.907,0,0,0,170.218,145.019Z" transform="translate(4.953 22.647)" fill="url(#linear-gradient-5)"/>
    <path id="Path_11168" data-name="Path 11168" d="M190.792,156.563a14.03,14.03,0,0,1,3.722.713,4.625,4.625,0,0,1,2.711,2.485,2.568,2.568,0,0,1,.083,1.784,3.841,3.841,0,0,1-2.021,1.914,25.779,25.779,0,0,1-13.769,2.961,4.756,4.756,0,0,1-3.341-1.189,5.232,5.232,0,0,1-.88-3.341l-.166-5.589a6.956,6.956,0,0,1,3.068.868c1.76.595,2.449-.832,3.9-1.189C185.988,155.54,188.866,156.373,190.792,156.563Z" transform="translate(7.637 24.968)" fill="url(#linear-gradient-6)"/>
    <path id="Path_11169" data-name="Path 11169" d="M133.109,105.552a37.694,37.694,0,0,0-7.681.119,1.95,1.95,0,0,0-.939.3,1.665,1.665,0,0,0-.523,1.189c-.357,3.448,2.378,6.445,5.327,8.264,7.978,4.946,18.038,4.756,26.849,7.99a4.043,4.043,0,0,1,2.128,1.391,5.006,5.006,0,0,1,.523,2.378c.392,4.649,2.973,8.835,3.829,13.412s-.059,9.37.642,13.983c2.889-3.08,7.812-3.567,10.7-6.611,2.711-2.806,3.246-6.992,3.65-10.868l1.094-10.63a3.258,3.258,0,0,0-1.926-3.853C163.774,114.209,148.531,106.884,133.109,105.552Z" transform="translate(-2.42 15.432)" fill="url(#linear-gradient-7)"/>
    <path id="Path_11170" data-name="Path 11170" d="M180.66,105.711a6.766,6.766,0,0,1,3.222,1.629,6.516,6.516,0,0,1,1.189,4.471,90.688,90.688,0,0,1-6.29,32.96,2.271,2.271,0,0,1-3.317,1.772,74.908,74.908,0,0,1-7.3-2.378l3.234-21.4a2.972,2.972,0,0,0-.1-1.8,2.9,2.9,0,0,0-.975-1,86,86,0,0,0-11.653-7.134c-3.246-1.641-6.968-3.567-7.848-7.039a3.864,3.864,0,0,1,.642-3.508,5.72,5.72,0,0,1,1.784-1.189c2.152-1.058,4.863-2.378,7.336-2.164,1.986.2,2.747,1.344,4.4,2.188C169.578,103.4,175.678,104.261,180.66,105.711Z" transform="translate(2.632 14.203)" fill="#282328"/>
    <path id="Path_11171" data-name="Path 11171" d="M158.972,78.193c1.593,4.388,2.378,9.037,3.781,13.472a8.668,8.668,0,0,0,1.617,3.222,8.918,8.918,0,0,0,3.567,2.093q2.794,1.082,5.684,1.891c1.284.345,2.818.939,2.961,2.247a2.378,2.378,0,0,1-.262,1.26,5.945,5.945,0,0,1-4.946,3.032,16,16,0,0,1-5.945-.975,8.93,8.93,0,0,1-4.566-2.461,9.667,9.667,0,0,1-1.463-3.448,98.107,98.107,0,0,0-8.074-19.952,22.592,22.592,0,0,1-2.378-5.351c-.785-3.282-.8-11.058,2.592-8.2C154.275,67.325,157.771,74.935,158.972,78.193Z" transform="translate(2.228 7.679)" fill="#fbc4d6"/>
    <path id="Path_11172" data-name="Path 11172" d="M150.807,112.509a48.325,48.325,0,0,0,5.838-2.723c7.134-3.948,1.3-5.886-1.082-10.63-1.7-3.365-1.011-7.4-.131-11.046,1.558-6.421,3.638-13.079,2.14-19.488a7.491,7.491,0,0,0-1.189-2.9,8.193,8.193,0,0,0-1.5-1.439,16.171,16.171,0,0,0-5.113-2.984c-3.567-1.189-7.61-.321-11,1.379-13.317,6.682-16.159,23.555-15.624,37.051.143,3.745.725,7.705,3.139,10.571s5.826,3.96,9.322,4.388a31.759,31.759,0,0,0,15.2-2.176Z" transform="translate(-2.579 6.989)" fill="#fff"/>
    <path id="Path_11173" data-name="Path 11173" d="M129.766,99.051a8,8,0,0,0,1.189,3.567c1.189,1.677,3.377,2.295,5.386,2.782l9.049,2.235a11.891,11.891,0,0,0,3.4.511c2.473-.119,4.6-1.7,6.564-3.222a5.03,5.03,0,0,0,1.284-1.272c-4.994-.476-9.976-.975-14.946-1.7-2.925-.428-6.017-1.023-8.169-3.032a10.25,10.25,0,0,1-2.473-3.912c-.357-.916-.523-3.246-1.558-3.448a26.778,26.778,0,0,0,.273,7.491Z" transform="translate(-1.396 12.814)" fill="url(#linear-gradient-8)"/>
    <path id="Path_11174" data-name="Path 11174" d="M145.906,72.62a1.415,1.415,0,0,1-.416,1,1.284,1.284,0,0,1-.82.166,6.528,6.528,0,0,1-6.112-7.717,32.892,32.892,0,0,1,1.046-3.329c.63-2.235.523-4.756,1.938-6.6a73.919,73.919,0,0,0,4.185,8.157,4.423,4.423,0,0,1,.785,3.722Z" transform="translate(0.324 6.118)" fill="#fbc4d6"/>
    <path id="Path_11175" data-name="Path 11175" d="M146.253,66.229l-.535,3.567s-6.124-3.032-5.327-8.656S146.253,66.229,146.253,66.229Z" transform="translate(0.678 6.754)" fill="url(#linear-gradient-9)"/>
    <path id="Path_11176" data-name="Path 11176" d="M153.578,64.843a5.648,5.648,0,0,1-1.9,2.9,4.281,4.281,0,0,1-1.451.63,8.787,8.787,0,0,1-9.358-4.364,12.854,12.854,0,0,1-.5-10.7,7.5,7.5,0,0,1,3.567-4.411,6.124,6.124,0,0,1,5.755.678A14.019,14.019,0,0,1,154.7,55.9C155.564,58.505,154.47,62.358,153.578,64.843Z" transform="translate(0.511 4.668)" fill="#fbc4d6"/>
    <path id="Path_11177" data-name="Path 11177" d="M182.524,119.57A23.175,23.175,0,0,1,186.092,126a128.013,128.013,0,0,1,9.025,35.3,46.5,46.5,0,0,1-11.5,0,107.682,107.682,0,0,0-3.936-25.327,16.362,16.362,0,0,0-2.081-5.018c-1.7-2.461-4.495-3.888-7.134-5.22a105.207,105.207,0,0,0-19.274-7.134c-2.806-.773-5.636-1.486-8.395-2.378-2.319-.785-8.823-3.662-10.7-5.22a9.168,9.168,0,0,1-3.567-6.242c0,.618,18.121,1.855,19.417,1.712,4.364-.464,9.512-2.961,13.817-1.189,3.365,1.379,6.445,4.257,9.512,6.242C175,113.863,179.54,116.122,182.524,119.57Z" transform="translate(-1.551 15.29)" fill="#473f47"/>
    <path id="Path_11178" data-name="Path 11178" d="M139.016,116.117,116.9,105.309l25.933-11,22.128,9.667Z" transform="translate(22.1 17.828)" fill="#2f1073"/>
    <path id="Path_11179" data-name="Path 11179" d="M128.982,74.64a9,9,0,0,1-.155,1.189c-.654,6.088-.059,12.057.166,18.109.143,3.745.63,10.88,4.613,12.794,7.443,3.567,21.807,2.212,21.807,2.212a12.651,12.651,0,0,1,5.006.2c.892.273,1.712.737,2.58,1.07,3.139,1.189,6.647.595,9.952,0a4.257,4.257,0,0,0,1.617-.535,2.937,2.937,0,0,0,.273-4.114,7.55,7.55,0,0,0-4-2.2,23.638,23.638,0,0,0-12.913-.5,14.413,14.413,0,0,1-1.665.452,11.212,11.212,0,0,1-2,.143h-5.065c-5.826,0-11.32.071-12.2-6.742a37,37,0,0,1-.19-7.61c.345-4.578,1.546-9.12,1.3-13.7a9.084,9.084,0,0,0-1.058-4.162,4.233,4.233,0,0,0-3.5-2.212,4.364,4.364,0,0,0-3.567,2.378A9.513,9.513,0,0,0,128.982,74.64Z" transform="translate(-1.551 8.556)" fill="#fbc4d6"/>
    <path id="Path_11180" data-name="Path 11180" d="M170.553,84.1,139.638,99.831,135.5,118.047l25.945-12.14Z" transform="translate(25.617 15.898)" fill="#2f1073"/>
    <path id="Path_11181" data-name="Path 11181" d="M159.836,59.152a4.97,4.97,0,0,0-1.189-3.08,5.255,5.255,0,0,0-1.308-1.094c-.69-.4-.856-.44-1.308.214-.583.844-.773,1.831-1.308,2.711a6.932,6.932,0,0,1-2.378,2.378,6.445,6.445,0,0,1-3.662.963,5.173,5.173,0,0,0-1.546,0,1.189,1.189,0,0,0-.82.595,3.971,3.971,0,0,0-.131,1.367c-.107,1.189-1.284,2.033-1.938,3.068s-.844,2.568-1.629,3.674a1.534,1.534,0,0,1-.583.523c-.559.238-1.189-.071-1.772-.178-1.724-.3-3.115,1.308-4.59,2.283-2.961,1.95-6.837,1.451-10.333.868a10.285,10.285,0,0,1-3.091-.88,10.416,10.416,0,0,1-2.77-2.378c-1.3-1.427-2.58-2.877-3.853-4.328a5.006,5.006,0,0,1-1.106-1.629,2.925,2.925,0,0,1-.107-1.32,7.979,7.979,0,0,1,.725-2.378c.927-2.081,2.009-4.34,4.1-5.279s4.566-.238,6.873-.476a1.367,1.367,0,0,0,.785-.25,1.712,1.712,0,0,0,.38-.725c.963-3.2,2.164-6.671,5.042-8.323a11.546,11.546,0,0,1,7.134-.939,28.168,28.168,0,0,0,7.265.416c1.189-.19,2.378-.583,3.567-.82a11.641,11.641,0,0,1,8.181,1.189,8.632,8.632,0,0,1,4.209,7.027,9.846,9.846,0,0,0,0,1.677c.083.523.309,1.034.392,1.558a3.222,3.222,0,0,1-3.234,3.567Z" transform="translate(-4.225 3.796)" fill="#ff8345"/>
    <path id="Path_11182" data-name="Path 11182" d="M128.049,78.222a52.426,52.426,0,0,0-.119,10.131,1.451,1.451,0,0,0,.214.832,1.474,1.474,0,0,0,.975.476,33.139,33.139,0,0,0,5.838.559,1.962,1.962,0,0,0,2.545-1.629c1.07-4.471,2.128-8.942,2.937-13.472.321-1.819.547-3.864-.547-5.339-1.581-2.14-5.85-2.378-7.907-.82C129.5,70.874,128.441,75.345,128.049,78.222Z" transform="translate(-1.7 8.351)" fill="#fff"/>
    <path id="Path_11183" data-name="Path 11183" d="M157.611,73.021l3.365,8.062a1.736,1.736,0,0,1,.19,1.023,1.617,1.617,0,0,1-.476.749,19.393,19.393,0,0,1-5.755,4.185,20.1,20.1,0,0,1-4.756-6.349c-1.118-2.866-.868-6.052-.535-9.108.2-1.938.131-8.169,3.424-5.755C155.364,67.48,156.577,70.536,157.611,73.021Z" transform="translate(2.388 7.845)" fill="#fff"/>
    <path id="Path_11184" data-name="Path 11184" d="M117.237,140.242a8.085,8.085,0,0,1-2.521,5.874,8.466,8.466,0,0,1-5.03,2.283,10.342,10.342,0,0,1-1.058,0l-59.06-1.189a8.7,8.7,0,0,1-8.609-8.561,8.085,8.085,0,0,1,2.521-5.874,8.525,8.525,0,0,1,6.088-2.378h2.009a16.1,16.1,0,0,1-.63-4.495,15.909,15.909,0,0,1,4.97-11.581,16.266,16.266,0,0,1,4.756-3.163,17.146,17.146,0,0,1,7.229-1.427l5.018.107a17.467,17.467,0,0,1,15.065,9.2,10.535,10.535,0,0,1,4.637-.987h1.3a10.333,10.333,0,0,1,10.2,10.154v.488a9.311,9.311,0,0,1-.392,2.723l4.887.107A8.7,8.7,0,0,1,117.237,140.242Z" transform="translate(-18.105 16.248)" fill="#fff"/>
    <path id="Path_11185" data-name="Path 11185" d="M109.687,144.734a10.356,10.356,0,0,1-1.058,0l-59.06-1.189a8.7,8.7,0,0,1-8.609-8.561,8.085,8.085,0,0,1,2.521-5.874c-2.319,14.578,12.9,12.5,12.9,12.5h38.37Z" transform="translate(-18.105 19.912)" fill="url(#linear-gradient-10)"/>
    <path id="Path_11186" data-name="Path 11186" d="M54.271,131.908l-4.281-1.629a16.1,16.1,0,0,1-.63-4.495A15.909,15.909,0,0,1,54.33,114.2a16.265,16.265,0,0,1,4.756-3.163C47.232,121.218,54.271,131.908,54.271,131.908Z" transform="translate(-16.517 16.496)" fill="url(#linear-gradient-11)"/>
    <path id="Path_11187" data-name="Path 11187" d="M248.253,82.12a8.062,8.062,0,0,1-2.533,5.874,8.5,8.5,0,0,1-5.042,2.283,6.2,6.2,0,0,1-1.058,0l-59.048-1.189A8.692,8.692,0,0,1,172,80.61a8.086,8.086,0,0,1,2.509-5.945,8.68,8.68,0,0,1,6.1-2.378h2a16.455,16.455,0,0,1-.63-4.483,15.921,15.921,0,0,1,4.97-11.581,16.361,16.361,0,0,1,4.756-3.175,17.111,17.111,0,0,1,7.229-1.427l5.018.107A17.431,17.431,0,0,1,219,60.943a10.25,10.25,0,0,1,4.637-.987h1.3A10.321,10.321,0,0,1,235.15,70.1v.488a9.513,9.513,0,0,1-.4,2.735l4.887.1A8.728,8.728,0,0,1,248.253,82.12Z" transform="translate(6.667 5.262)" fill="#fff"/>
    <path id="Path_11188" data-name="Path 11188" d="M240.691,86.612a6.194,6.194,0,0,1-1.058,0l-59.048-1.189A8.692,8.692,0,0,1,172,76.945,8.085,8.085,0,0,1,174.509,71c-2.378,14.59,12.9,12.5,12.9,12.5h38.37Z" transform="translate(6.667 8.927)" fill="url(#linear-gradient-12)"/>
    <path id="Path_11189" data-name="Path 11189" d="M185.293,73.788,181,72.159a16.456,16.456,0,0,1-.63-4.483,15.921,15.921,0,0,1,4.97-11.581A16.361,16.361,0,0,1,190.1,52.92C178.254,63.1,185.293,73.788,185.293,73.788Z" transform="translate(8.249 5.509)" fill="url(#linear-gradient-13)"/>
    <path id="Path_11190" data-name="Path 11190" d="M147.221,58.606a1.189,1.189,0,0,0-.82.595,3.972,3.972,0,0,0-.131,1.367c-.107,1.189-1.284,2.033-1.938,3.068s-.844,2.568-1.629,3.674a1.534,1.534,0,0,1-.583.523c-.559.238-1.189-.071-1.772-.178-1.724-.3-3.115,1.308-4.59,2.283-2.961,1.95-6.837,1.451-10.333.868a10.286,10.286,0,0,1-3.175-.9,10.416,10.416,0,0,1-2.77-2.378c-1.3-1.427-2.58-2.878-3.853-4.328a5.006,5.006,0,0,1-1.106-1.629,2.925,2.925,0,0,1-.107-1.32,14.757,14.757,0,0,1,1.724-.892,8,8,0,0,1,5.945-.654c1.593.618,2.723,2.033,4.09,3.044a9.81,9.81,0,0,0,12.651-1.189,10.9,10.9,0,0,1,2.093-2.093C142.334,57.69,145.211,57.809,147.221,58.606Z" transform="translate(-4.225 6.458)" fill="url(#linear-gradient-14)"/>
  </g>
</svg>
